<?xml version="1.0"?>
<svg version="1.1" xmlns="http://www.w3.org/2000/svg" width="250" height="60" style=""><path fill="#14db53" d="M16.34033203125,50.126953125q0.0439453125-0.9228515625,0.0439453125-1.8017578125q0-3.18603515625,0.230712890625-6.35009765625t0.318603515625-6.35009765625q0.1318359375-3.6474609375,0.24169921875-7.22900390625t0.439453125-7.20703125q0.087890625-0.90087890625,0.516357421875-1.175537109375t1.285400390625-0.274658203125q0.3955078125,0,1.0546875,0.15380859375t0.6591796875,0.7470703125q0.3076171875,0.0439453125,0.615234375,0.0439453125q0.46142578125,0,0.94482421875-0.087890625q0.791015625-0.1318359375,1.614990234375-0.296630859375t1.636962890625-0.318603515625t1.56005859375-0.15380859375q0.17578125,0,0.494384765625,0.02197265625t0.63720703125,0.1318359375t0.538330078125,0.274658203125t0.2197265625,0.428466796875t-0.516357421875,0.472412109375t-1.351318359375,0.362548828125t-1.8017578125,0.263671875t-1.8896484375,0.186767578125t-1.636962890625,0.120849609375t-1.021728515625,0.0439453125l-0.0439453125,8.26171875l0.0439453125,4.10888671875q0.68115234375,0,2.04345703125-0.0439453125q0.54931640625-0.02197265625,1.0986328125-0.02197265625q0.8349609375,0,1.7138671875,0.0439453125q1.4501953125,0.06591796875,2.61474609375,0.263671875t1.47216796875,0.703125q0,0.3076171875-0.318603515625,0.494384765625t-0.714111328125,0.274658203125t-0.802001953125,0.10986328125t-0.582275390625,0.02197265625q-1.6259765625,0-3.27392578125-0.06591796875t-3.251953125-0.263671875q0,2.70263671875-0.142822265625,5.361328125t-0.142822265625,5.361328125q0,1.16455078125,0.02197265625,2.296142578125t0.263671875,2.252197265625q0.59326171875-0.0439453125,1.285400390625-0.10986328125t1.40625-0.164794921875t1.373291015625-0.164794921875t1.142578125-0.06591796875q0.263671875,0,0.714111328125,0.06591796875t0.9228515625,0.2197265625t0.81298828125,0.384521484375t0.340576171875,0.538330078125q0,0.3515625-0.648193359375,0.626220703125t-1.658935546875,0.439453125t-2.208251953125,0.230712890625t-2.318115234375,0.087890625t-2.021484375,0.02197265625l-1.2744140625,0q-1.20849609375,0-1.768798828125-0.450439453125t-0.780029296875-1.175537109375q-0.17578125-0.59326171875-0.15380859375-1.34033203125l0-0.3076171875z M34.614331054688,44.30419921875q0-1.494140625,0.406494140625-2.87841796875t1.219482421875-2.471923828125t2.032470703125-1.73583984375t2.823486328125-0.648193359375q0.98876953125,0,2.186279296875,0.296630859375t2.252197265625,0.87890625t1.7578125,1.483154296875t0.703125,2.0654296875q0,0.54931640625-0.186767578125,0.8349609375t-0.758056640625,0.28564453125l-0.24169921875-0.0439453125q0.63720703125,1.7138671875,1.0986328125,3.515625t0.90087890625,3.603515625q0.17578125,0.3515625,0.263671875,0.626220703125t0.087890625,0.538330078125q0,0.3515625-0.19775390625,0.582275390625t-0.516357421875,0.340576171875t-0.6591796875,0.15380859375t-0.604248046875,0.0439453125q-0.94482421875,0-1.417236328125-0.32958984375t-0.68115234375-0.90087890625t-0.252685546875-1.285400390625t-0.17578125-1.439208984375q-0.263671875,0.85693359375-0.692138671875,1.669921875t-1.0107421875,1.461181640625t-1.373291015625,1.03271484375t-1.77978515625,0.384521484375q-1.4501953125,0-2.43896484375-0.8349609375t-1.593017578125-2.054443359375t-0.87890625-2.603759765625t-0.274658203125-2.57080078125z M37.734448242188,43.99658203125q0,0.81298828125,0.10986328125,1.7138671875t0.362548828125,1.77978515625t0.648193359375,1.658935546875t0.98876953125,1.373291015625q1.07666015625-1.16455078125,1.593017578125-2.83447265625t0.9228515625-3.218994140625t0.9228515625-2.65869140625t1.593017578125-1.109619140625q0.68115234375,0,1.142578125,0.24169921875q-0.2197265625-0.54931640625-0.72509765625-1.065673828125t-1.131591796875-0.94482421875t-1.29638671875-0.703125t-1.263427734375-0.274658203125q-0.17578125,0-0.406494140625,0.054931640625t-0.362548828125,0.010986328125q-0.90087890625,0.263671875-1.483154296875,0.911865234375t-0.94482421875,1.527099609375t-0.516357421875,1.8017578125t-0.15380859375,1.73583984375z M53.657373046875,38.63525390625q0-0.90087890625,0.52734375-1.549072265625t1.285400390625-1.0546875t1.658935546875-0.604248046875t1.669921875-0.19775390625q0.59326171875,0,1.58203125,0.17578125t1.93359375,0.52734375t1.636962890625,0.9228515625t0.692138671875,1.34033203125q0,0.3515625-0.263671875,0.626220703125t-0.54931640625,0.274658203125q-0.59326171875,0-1.07666015625-0.384521484375t-0.999755859375-0.81298828125t-1.131591796875-0.81298828125t-1.38427734375-0.384521484375t-1.395263671875,0.494384765625t-0.626220703125,1.307373046875q0,1.34033203125,0.94482421875,2.625732421875t2.076416015625,2.70263671875t2.076416015625,2.977294921875t0.94482421875,3.44970703125q0,0.81298828125-0.340576171875,1.373291015625t-0.90087890625,0.911865234375t-1.263427734375,0.538330078125t-1.3623046875,0.186767578125q-0.72509765625,0-1.69189453125-0.340576171875t-1.82373046875-0.90087890625t-1.439208984375-1.307373046875t-0.582275390625-1.56005859375q0-0.3955078125,0.560302734375-0.50537109375t0.823974609375-0.10986328125q0.1318359375,0,0.406494140625,0.087890625t0.538330078125,0.19775390625t0.472412109375,0.24169921875t0.164794921875,0.28564453125q0.2197265625,0.263671875,0.670166015625,0.780029296875t0.90087890625,0.8349609375t0.791015625,0.230712890625t0.340576171875-0.98876953125q0-1.7138671875-0.9228515625-3.153076171875t-2.010498046875-2.8125t-2.010498046875-2.724609375t-0.9228515625-2.889404296875z M69.140844726563,39.404296875q0-0.63720703125,0.362548828125-0.8349609375t0.911865234375-0.19775390625q0.90087890625,0,1.373291015625,0.340576171875t0.472412109375,1.197509765625q0,1.03271484375,0.15380859375,2.581787109375t0.450439453125,3.01025390625t0.703125,2.515869140625t0.845947265625,1.0546875q0.81298828125,0,1.439208984375-1.25244140625t1.0986328125-3.076171875t0.81298828125-3.922119140625t0.472412109375-3.746337890625q0.087890625-0.90087890625,0.428466796875-1.307373046875t1.241455078125-0.406494140625q1.03271484375,0,1.505126953125,0.85693359375t0.604248046875,2.109375q0.10986328125,1.07666015625,0.10986328125,2.2412109375l0,0.37353515625l0,0.87890625q0,0.8349609375,0.02197265625,1.494140625l0.63720703125,13.46923828125l0.087890625,2.2412109375q0.0439453125,0.3076171875,0.06591796875,0.582275390625t0.02197265625,0.582275390625q0,1.25244140625-0.538330078125,1.614990234375t-1.746826171875,0.362548828125q-0.263671875,0-0.670166015625-0.0439453125t-0.791015625-0.17578125t-0.6591796875-0.362548828125t-0.274658203125-0.582275390625l0.087890625-0.2197265625q0.10986328125-1.318359375,0.10986328125-2.7685546875l0-0.46142578125q-0.02197265625-1.7138671875-0.10986328125-3.4716796875t-0.19775390625-3.515625t-0.10986328125-3.3837890625q-0.3076171875,0.68115234375-0.714111328125,1.40625t-0.94482421875,1.307373046875t-1.219482421875,0.966796875t-1.5380859375,0.384521484375q-1.25244140625,0-2.0654296875-0.6591796875t-1.263427734375-1.7138671875t-0.648193359375-2.362060546875t-0.263671875-2.61474609375t-0.087890625-2.493896484375t-0.17578125-1.99951171875z"/><path fill="#ffffff" d="M109.58295898437,45.49072265625q0-4.76806640625,0.428466796875-9.547119140625t1.790771484375-9.415283203125q0.3955078125-1.38427734375,1.03271484375-2.735595703125t1.56005859375-2.406005859375t2.197265625-1.7138671875t3.0322265625-0.6591796875l0.46142578125,0.0439453125q1.8896484375,0.263671875,2.79052734375,1.527099609375t0.90087890625,3.153076171875q0,0.50537109375-0.120849609375,1.263427734375t-0.384521484375,1.461181640625t-0.714111328125,1.197509765625t-1.131591796875,0.494384765625q-0.3076171875-0.0439453125-0.560302734375-0.10986328125t-0.472412109375-0.28564453125q0.3515625-0.76904296875,0.626220703125-1.60400390625t0.274658203125-1.91162109375q0-0.3955078125-0.06591796875-1.0107421875t-0.252685546875-1.219482421875t-0.494384765625-1.0546875t-0.85693359375-0.450439453125q-1.38427734375,0-2.3291015625,1.549072265625t-1.58203125,3.955078125t-0.94482421875,5.3173828125t-0.472412109375,5.625t-0.186767578125,4.89990234375t-0.02197265625,3.087158203125q0,1.0546875-0.02197265625,2.3291015625l0,0.28564453125q0.02197265625,1.12060546875,0.15380859375,2.13134765625q0.17578125,1.142578125,0.68115234375,1.9775390625t1.58203125,0.966796875q0.32958984375,0.0439453125,0.63720703125,0.0439453125q1.2744140625,0,2.30712890625-0.72509765625q1.2744140625-0.90087890625,2.26318359375-2.340087890625t1.7578125-3.1640625t1.417236328125-3.262939453125t1.263427734375-2.548828125t1.2744140625-1.0107421875q0.2197265625,0,0.6591796875,0.087890625t0.439453125,0.41748046875q0,0.087890625-0.0439453125,0.24169921875t-0.10986328125,0.24169921875q-0.59326171875,2.3291015625-1.505126953125,4.833984375t-2.3291015625,4.559326171875t-3.4716796875,3.350830078125t-4.932861328125,1.29638671875q-2.0654296875,0-3.350830078125-0.780029296875t-1.9775390625-2.08740234375t-0.94482421875-2.955322265625t-0.252685546875-3.33984375z M132.55910644531,44.7216796875q0-1.25244140625,0.318603515625-2.581787109375t1.0107421875-2.39501953125t1.746826171875-1.73583984375t2.548828125-0.670166015625q1.12060546875,0,2.362060546875,0.384521484375t2.274169921875,1.0986328125t1.680908203125,1.746826171875t0.648193359375,2.30712890625q0,1.5380859375-0.560302734375,2.92236328125t-1.571044921875,2.471923828125t-2.362060546875,1.7138671875t-2.933349609375,0.626220703125q-1.29638671875,0-2.26318359375-0.472412109375t-1.614990234375-1.263427734375t-0.966796875-1.86767578125t-0.318603515625-2.28515625z M135.78908691406,44.677734375q0,0.3955078125,0.120849609375,1.16455078125t0.362548828125,1.505126953125t0.626220703125,1.2744140625t0.933837890625,0.494384765625q1.16455078125-0.1318359375,1.922607421875-0.758056640625t1.23046875-1.527099609375t0.6591796875-1.95556640625t0.186767578125-1.99951171875q0-1.20849609375-0.472412109375-2.021484375t-1.549072265625-1.318359375q0,0.0439453125,0.0439453125,0.0439453125t0.0439453125-0.0439453125l-0.54931640625-0.1318359375q-0.2197265625-0.087890625-0.538330078125-0.19775390625t-0.626220703125-0.4833984375q-0.85693359375,0.3076171875-1.329345703125,0.791015625t-0.714111328125,1.175537109375t-0.296630859375,1.658935546875t-0.054931640625,2.3291015625z M148.30625,42.37060546875q0-0.439453125,0.098876953125-1.16455078125t0.230712890625-1.439208984375t0.3076171875-1.329345703125t0.41748046875-0.791015625q0.17578125-0.17578125,0.604248046875-0.3515625t0.90087890625-0.252685546875t0.87890625,0.06591796875t0.494384765625,0.582275390625q-0.3076171875,0.3955078125-0.560302734375,1.351318359375t-0.384521484375,2.120361328125q-0.10986328125,0.98876953125-0.10986328125,2.04345703125l0,0.37353515625q0.02197265625,1.23046875,0.2197265625,2.26318359375t0.604248046875,1.702880859375t1.131591796875,0.670166015625q1.5380859375,0,2.8125-1.417236328125t2.26318359375-3.460693359375t1.73583984375-4.339599609375t1.2744140625-4.010009765625q0.1318359375-0.50537109375,0.626220703125-0.68115234375t1.065673828125-0.120849609375t1.021728515625,0.274658203125t0.538330078125,0.52734375q-0.439453125,3.69140625-0.692138671875,7.3828125t-0.252685546875,7.4267578125q0,0.72509765625,0.06591796875,1.329345703125t-0.06591796875,1.03271484375t-0.582275390625,0.68115234375t-1.439208984375,0.252685546875q-0.2197265625,0-0.560302734375-0.0439453125t-0.703125-0.142822265625t-0.615234375-0.296630859375t-0.252685546875-0.46142578125q0-1.6259765625,0.120849609375-3.33984375t0.340576171875-3.31787109375q-0.59326171875,0.85693359375-1.307373046875,1.702880859375t-1.571044921875,1.527099609375t-1.845703125,1.087646484375t-2.13134765625,0.406494140625q-1.6259765625,0-2.559814453125-0.76904296875t-1.40625-1.922607421875t-0.59326171875-2.515869140625t-0.120849609375-2.63671875z M168.97526855469,38.15185546875q0-0.90087890625,0.318603515625-1.51611328125t1.351318359375-0.615234375q0.3955078125,0,0.98876953125,0.120849609375t0.68115234375,0.604248046875q0.2197265625,1.29638671875,0.24169921875,2.8125t0.15380859375,2.8564453125q0.50537109375-0.98876953125,1.29638671875-2.13134765625t1.8017578125-2.109375t2.197265625-1.60400390625t2.4169921875-0.63720703125q0.087890625,0,0.32958984375,0.06591796875t0.450439453125,0.186767578125t0.252685546875,0.274658203125t-0.24169921875,0.28564453125q-0.087890625,0.263671875-0.37353515625,0.318603515625t-0.50537109375,0.054931640625q-0.1318359375,0-0.41748046875-0.10986328125q-1.6259765625,0.85693359375-2.7685546875,2.3291015625t-1.86767578125,3.262939453125t-1.0546875,3.779296875t-0.32958984375,3.878173828125q0,0.94482421875-0.428466796875,1.142578125t-1.373291015625,0.19775390625q-0.50537109375,0-1.065673828125-0.10986328125t-0.780029296875-0.703125q-0.3955078125-1.25244140625-0.648193359375-2.87841796875t-0.384521484375-3.350830078125t-0.186767578125-3.394775390625t-0.054931640625-3.01025390625z M184.59057617188,43.77685546875q0-2.021484375,0.472412109375-3.966064453125t0.802001953125-3.878173828125q0.087890625-0.50537109375,0.692138671875-0.626220703125t1.021728515625-0.120849609375q0.72509765625,0,1.16455078125,0.2197265625q0.17578125,0.087890625,0.32958984375,0.19775390625t0.15380859375,0.28564453125q0,1.8896484375-0.450439453125,3.69140625t-0.450439453125,3.8232421875q0,0.68115234375,0.098876953125,1.285400390625t0.186767578125,1.197509765625l0.1318359375,0.63720703125q0,0.17578125,0.02197265625,0.3076171875t0.06591796875,0.3076171875q0,0.3955078125-0.560302734375,0.538330078125t-0.977783203125,0.142822265625q-0.63720703125,0-1.175537109375-0.252685546875t-0.845947265625-0.867919921875l-0.3076171875-0.63720703125q-0.263671875-0.50537109375-0.263671875-1.131591796875t-0.10986328125-1.153564453125z M185.99682617188,30.54931640625l0-0.41748046875q0-1.03271484375,0.516357421875-1.845703125t1.549072265625-0.81298828125q0.1318359375,0,0.252685546875,0.02197265625t0.252685546875,0.02197265625q0.263671875,0.0439453125,0.692138671875,0.208740234375t0.428466796875,0.516357421875l0,0.0439453125q-0.087890625,0.17578125-0.10986328125,0.362548828125t-0.10986328125,0.318603515625l0.0439453125-0.0439453125q-0.263671875,0.68115234375-0.428466796875,1.0986328125t-0.362548828125,0.670166015625t-0.494384765625,0.362548828125t-0.845947265625,0.10986328125q-0.087890625,0-0.3076171875-0.02197265625t-0.472412109375-0.087890625t-0.428466796875-0.17578125t-0.17578125-0.32958984375z M194.18537597656,45.205078125q0-1.5380859375,0.340576171875-3.62548828125t1.153564453125-3.955078125t2.142333984375-3.175048828125t3.350830078125-1.307373046875q1.8896484375,0,2.83447265625,1.087646484375t0.94482421875,2.933349609375q0,1.20849609375-0.450439453125,2.647705078125t-1.285400390625,2.724609375t-1.9775390625,2.142333984375t-2.548828125,0.85693359375l-0.5712890625-0.0439453125q0,0.59326171875,0.17578125,1.593017578125t0.516357421875,1.988525390625t0.87890625,1.73583984375t1.307373046875,0.7470703125q1.12060546875,0,2.1533203125-0.90087890625t1.95556640625-1.99951171875t1.7138671875-1.99951171875t1.4501953125-0.90087890625q0.3515625,0,0.72509765625,0.10986328125t0.41748046875,0.615234375q0,0.3076171875-0.164794921875,0.50537109375t-0.296630859375,0.439453125q-0.68115234375,1.16455078125-1.483154296875,2.21923828125t-1.812744140625,1.91162109375t-2.208251953125,1.351318359375t-2.647705078125,0.494384765625q-1.8896484375,0-3.14208984375-0.670166015625t-2.021484375-1.8017578125t-1.109619140625-2.61474609375t-0.340576171875-3.109130859375z M198.11848144531,43.53515625l0.615234375,0.54931640625q0.439453125,0.3955078125,0.87890625,0.17578125t0.791015625-0.802001953125t0.648193359375-1.439208984375t0.52734375-1.7578125t0.340576171875-1.7578125t0.10986328125-1.42822265625l0-0.7470703125t-0.06591796875-0.791015625t-0.230712890625-0.626220703125t-0.516357421875-0.318603515625q-0.10986328125-0.02197265625-0.19775390625-0.02197265625q-0.7470703125,0-1.2744140625,0.94482421875q-0.5712890625,1.0546875-0.9228515625,2.559814453125t-0.50537109375,3.087158203125t-0.19775390625,2.373046875z M212.54726562499,38.15185546875q0-0.90087890625,0.318603515625-1.51611328125t1.351318359375-0.615234375q0.3955078125,0,0.98876953125,0.120849609375t0.68115234375,0.604248046875q0.2197265625,1.29638671875,0.24169921875,2.8125t0.15380859375,2.8564453125q0.50537109375-0.98876953125,1.29638671875-2.13134765625t1.8017578125-2.109375t2.197265625-1.60400390625t2.4169921875-0.63720703125q0.087890625,0,0.32958984375,0.06591796875t0.450439453125,0.186767578125t0.252685546875,0.274658203125t-0.24169921875,0.28564453125q-0.087890625,0.263671875-0.37353515625,0.318603515625t-0.50537109375,0.054931640625q-0.1318359375,0-0.41748046875-0.10986328125q-1.6259765625,0.85693359375-2.7685546875,2.3291015625t-1.86767578125,3.262939453125t-1.0546875,3.779296875t-0.32958984375,3.878173828125q0,0.94482421875-0.428466796875,1.142578125t-1.373291015625,0.19775390625q-0.50537109375,0-1.065673828125-0.10986328125t-0.780029296875-0.703125q-0.3955078125-1.25244140625-0.648193359375-2.87841796875t-0.384521484375-3.350830078125t-0.186767578125-3.394775390625t-0.054931640625-3.01025390625z M228.16257324218,38.63525390625q0-0.90087890625,0.52734375-1.549072265625t1.285400390625-1.0546875t1.658935546875-0.604248046875t1.669921875-0.19775390625q0.59326171875,0,1.58203125,0.17578125t1.93359375,0.52734375t1.636962890625,0.9228515625t0.692138671875,1.34033203125q0,0.3515625-0.263671875,0.626220703125t-0.54931640625,0.274658203125q-0.59326171875,0-1.07666015625-0.384521484375t-0.999755859375-0.81298828125t-1.131591796875-0.81298828125t-1.38427734375-0.384521484375t-1.395263671875,0.494384765625t-0.626220703125,1.307373046875q0,1.34033203125,0.94482421875,2.625732421875t2.076416015625,2.70263671875t2.076416015625,2.977294921875t0.94482421875,3.44970703125q0,0.81298828125-0.340576171875,1.373291015625t-0.90087890625,0.911865234375t-1.263427734375,0.538330078125t-1.3623046875,0.186767578125q-0.72509765625,0-1.69189453125-0.340576171875t-1.82373046875-0.90087890625t-1.439208984375-1.307373046875t-0.582275390625-1.56005859375q0-0.3955078125,0.560302734375-0.50537109375t0.823974609375-0.10986328125q0.1318359375,0,0.406494140625,0.087890625t0.538330078125,0.19775390625t0.472412109375,0.24169921875t0.164794921875,0.28564453125q0.2197265625,0.263671875,0.670166015625,0.780029296875t0.90087890625,0.8349609375t0.791015625,0.230712890625t0.340576171875-0.98876953125q0-1.7138671875-0.9228515625-3.153076171875t-2.010498046875-2.8125t-2.010498046875-2.724609375t-0.9228515625-2.889404296875z"/></svg>
